PathFileType	4	(X/Y/Z)	D:\TRACE\spotREDO_2-26-24\spot_Both_Motion_3_6-platform.trc
DataRate	CameraRate	NumFrames	NumMarkers	Units	OrigDataRate	OrigDataStartFrame	OrigNumFrames
100.00	100.00	      74	5	mm	100.00	3501	      7000
Frame#	Time	Left_Front			Right_Front			Left_Aft			Right_Aft			Post			
		X1	Y1	Z1	X2	Y2	Z2	X3	Y3	Z3	X4	Y4	Z4	X5	Y5	Z5	

3501	35.000	-672.45898	6.16202	-573.01855	742.55078	13.58894	-488.18570	-743.48566	-5.83330	645.30634	825.34351	1.33243	650.71716	22.05421	638.26672	-969.55505	
3502	35.010	-672.42529	5.96089	-573.07532	742.53473	13.35383	-488.28406	-743.58032	-5.57662	645.23224	825.34711	1.40184	650.64362	22.25245	637.98840	-969.63843	
3503	35.020	-672.36133	5.55634	-573.17310	742.45630	13.21834	-488.38306	-744.04626	-4.94159	645.29639	825.35040	1.51117	650.63867	22.04539	637.70087	-969.83612	
3504	35.030	-672.13477	5.07103	-573.28821	742.37347	12.96906	-488.49307	-744.02441	-4.92151	645.24030	825.46411	1.79996	650.55420	22.08801	637.45947	-970.04669	
3505	35.040	-672.08655	4.89247	-573.38000	742.40332	12.89096	-488.53122	-744.09631	-4.12363	645.31818	825.29492	2.32425	650.47900	21.97326	637.03381	-970.33722	
3506	35.050	-672.08313	4.72617	-573.44659	742.44031	12.64283	-488.55664	-743.96167	-4.25113	645.15826	825.50201	2.59152	650.40521	21.82324	636.54645	-970.62006	
3507	35.060	-672.18988	4.59768	-573.52106	742.63330	12.21912	-488.49506	-743.97534	-4.36471	645.10168	825.50684	2.89405	650.19348	21.63363	635.99207	-971.15021	
3508	35.070	-672.25940	4.42167	-573.65985	742.63757	11.96681	-488.56165	-744.06732	-4.02477	644.89093	825.58765	3.14842	650.17322	21.72504	635.61743	-971.52704	
3509	35.080	-672.37000	4.02368	-573.67694	742.54474	11.64467	-488.71436	-743.93378	-3.79409	644.88599	825.41626	3.32155	650.04126	21.87096	635.28137	-972.19501	
3510	35.090	-672.47083	3.57014	-573.84528	742.46411	11.43915	-488.86273	-743.88519	-3.62703	644.75543	825.28760	3.43381	649.97437	22.23986	634.55457	-972.72083	
3511	35.100	-672.41681	3.27384	-573.92719	742.29559	11.43842	-489.03949	-743.88727	-3.30363	644.64380	825.38342	3.86223	650.02179	21.74206	633.87000	-973.38580	
3512	35.110	-672.27966	3.05178	-574.00549	742.32288	11.33679	-489.00089	-743.78949	-2.83714	644.59515	825.44507	4.22123	649.98181	21.72593	633.53662	-973.80273	
3513	35.120	-672.21863	2.81284	-574.02148	742.32330	11.06533	-489.17255	-743.82520	-2.54538	644.65833	825.31805	4.50829	649.77728	21.93380	633.30078	-974.08820	
3514	35.130	-672.22473	2.51827	-574.07458	742.33130	10.77621	-489.20175	-743.74017	-2.41942	644.56213	825.25012	4.77200	649.66650	22.02371	632.62274	-974.52295	
3515	35.140	-672.23450	2.26464	-574.14020	742.38684	10.40207	-489.28415	-743.75061	-2.20613	644.51294	825.39746	5.03516	649.60608	22.27641	632.01776	-974.75464	
3516	35.150	-672.15320	1.95049	-574.25909	742.58240	10.00647	-489.26993	-743.78888	-1.72581	644.52985	825.43475	5.55978	649.36505	22.09019	631.47144	-975.11560	
3517	35.160	-672.08704	1.62904	-574.46838	742.58807	9.77922	-489.33945	-743.80127	-1.22677	644.27570	825.59357	5.96221	649.37799	22.08749	631.05945	-975.23511	
3518	35.170	-672.08118	1.36085	-574.60272	742.67499	9.58445	-489.36383	-743.65424	-0.85080	644.13324	825.65717	6.24285	649.31445	22.16173	630.53595	-975.53882	
3519	35.180	-672.18652	1.12518	-574.71008	742.64410	9.36954	-489.50827	-743.68756	-0.48956	643.91162	825.78497	6.50798	649.25696	22.06376	630.05322	-975.81671	
3520	35.190	-672.22351	0.64158	-574.67230	742.59686	9.13372	-489.73822	-743.54083	-0.22988	643.88660	825.88025	6.72594	649.13861	21.87155	629.40887	-976.23328	
3521	35.200	-672.11908	0.02006	-574.68707	742.52277	8.83499	-489.97766	-743.53699	-0.08920	643.82483	825.51337	7.14320	649.07922	22.41366	628.61670	-976.51031	
3522	35.210	-672.05273	-0.33790	-574.76990	742.69708	8.28885	-489.94394	-743.51874	0.24814	643.71466	825.50806	7.70922	649.03943	22.49365	627.94415	-977.42700	
3523	35.220	-672.02264	-0.57875	-574.89813	742.63666	8.10694	-489.91422	-743.42676	0.89859	643.59723	825.86487	8.22208	648.94196	22.41324	627.57501	-978.11481	
3524	35.230	-671.99658	-0.72750	-575.00433	742.68097	7.76284	-489.91373	-743.26324	1.37176	643.58051	825.97394	8.59117	648.88586	22.45570	626.90369	-978.87030	
3525	35.240	-671.91272	-1.13344	-575.07098	742.79688	7.35236	-489.97369	-743.22333	1.67791	643.51093	825.96722	8.87409	648.85565	22.63960	626.06525	-979.68488	
3526	35.250	-671.66669	-1.67723	-575.14520	742.83698	6.91649	-490.22110	-743.32410	2.05047	643.36841	825.91388	9.20225	648.70966	22.47904	625.50958	-980.21210	
3527	35.260	-671.67737	-2.17405	-575.14484	743.01581	6.48822	-490.33829	-743.29547	2.47120	643.28284	825.78540	9.52014	648.63098	22.02074	624.83643	-980.75183	
3528	35.270	-671.61542	-2.58834	-575.34253	742.99298	6.25307	-490.43213	-743.37299	2.80556	642.97925	825.76312	9.89188	648.58197	22.31811	624.17847	-981.16516	
3529	35.280	-671.61139	-2.89857	-575.48566	743.14148	5.95180	-490.38522	-743.34277	3.14897	642.89996	825.99707	10.59505	648.38129	22.90820	623.53137	-981.27936	
3530	35.290	-671.52496	-3.25504	-575.59094	743.11597	5.62055	-490.56384	-743.06744	3.68478	642.84119	826.18671	11.04244	648.33667	22.96056	623.08636	-981.60400	
3531	35.300	-671.50421	-3.53080	-575.69330	743.22321	5.21414	-490.76193	-742.91272	3.96581	642.78857	826.23181	11.37218	648.20306	22.79635	622.11115	-982.06256	
3532	35.310	-671.46759	-3.93866	-575.76154	743.04248	4.86055	-491.12436	-742.79523	4.40415	642.75488	826.31024	11.63260	648.01599	22.85883	621.57050	-982.34760	
3533	35.320	-671.33252	-4.49600	-575.97729	742.99701	4.75753	-491.31711	-742.86633	4.98492	642.53992	825.91290	12.03790	648.03809	23.02009	620.87372	-982.65192	
3534	35.330	-671.25769	-5.10577	-576.12982	743.26550	4.20962	-491.08939	-742.80756	5.42495	642.40082	826.10718	12.64203	647.88263	22.83437	619.96283	-983.54144	
3535	35.340	-671.24127	-5.36999	-576.18719	743.42004	3.89895	-491.05798	-743.03760	5.68763	642.27875	826.44794	13.01821	647.80737	23.23034	619.42224	-984.11633	
3536	35.350	-671.21539	-5.59099	-576.17584	743.56897	3.43894	-491.22989	-742.83270	6.25689	642.23199	826.33868	13.64068	647.81299	23.26163	618.84381	-984.87134	
3537	35.360	-671.06201	-6.13083	-576.37598	743.45941	3.31017	-491.29462	-742.68585	6.62617	642.31671	826.37872	14.25912	647.69238	23.09275	618.09204	-985.65240	
3538	35.370	-670.92395	-6.59768	-576.59406	743.58789	2.78124	-491.52615	-742.66919	7.02798	642.17493	826.50470	14.37635	647.56372	23.15787	617.25452	-986.48749	
3539	35.380	-670.94775	-6.99804	-576.76050	743.56390	2.48344	-491.59781	-742.48364	7.45534	642.09583	826.40955	14.67722	647.49689	23.28171	616.65576	-987.14075	
3540	35.390	-670.92102	-7.26795	-576.79993	743.54950	2.28841	-491.73898	-742.69757	8.34990	642.12793	826.46820	15.03927	647.37396	23.63002	616.07953	-987.60004	
3541	35.400	-670.76538	-7.75005	-576.83264	744.12341	1.71813	-491.71805	-742.42743	8.40931	641.98199	826.69128	15.62428	647.01837	23.45984	615.37488	-988.09045	
3542	35.410	-670.71289	-8.19035	-576.88086	744.07269	1.42182	-491.80206	-742.56915	8.90588	641.87152	826.72205	15.92698	646.83447	23.52186	614.63086	-988.55133	
3543	35.420	-670.62286	-8.54969	-576.92542	743.88684	1.25420	-491.94278	-742.59735	9.10033	641.59283	826.78906	16.28409	646.79315	23.77494	613.94934	-988.80090	
3544	35.430	-670.54663	-9.10475	-577.10254	743.96381	0.87424	-492.23788	-742.44617	9.35484	641.47430	826.96423	16.51561	646.76343	23.71618	613.45709	-988.97925	
3545	35.440	-670.36975	-9.39562	-577.23755	744.08612	0.61150	-492.29297	-742.25348	9.66540	641.37994	826.81219	17.19970	646.70789	23.72358	612.85510	-989.25299	
3546	35.450	-670.42859	-9.72548	-576.82806	744.25653	0.11800	-492.26089	-742.27802	10.03943	641.21045	827.01868	17.58313	646.46661	23.76074	612.06012	-989.57648	
3547	35.460	-670.35510	-10.10556	-577.04144	744.22803	-0.11613	-492.19891	-742.09528	10.66019	641.29047	827.20453	18.12451	646.35919	23.82702	611.54211	-989.84180	
3548	35.470	-670.34460	-10.48192	-577.15442	744.48602	-0.69927	-492.34250	-742.27576	11.15900	641.00592	827.06177	18.50084	646.32776	23.98009	610.94904	-990.60760	
3549	35.480	-670.32172	-10.99138	-577.27338	744.67505	-0.95871	-492.41568	-742.27863	11.63223	640.83191	827.36560	18.98145	646.48584	23.90329	610.09430	-991.36584	
3550	35.490	-670.26709	-11.60898	-577.46814	744.48242	-1.13015	-492.67191	-742.24432	11.89694	640.73218	827.14929	19.04745	646.11890	23.99048	609.40015	-991.85480	
3551	35.500	-670.23022	-11.93069	-577.52032	744.73376	-1.65941	-492.71497	-742.09009	12.09583	640.70184	827.18982	19.33814	645.97742	24.06136	608.96136	-992.63501	
3552	35.510	-670.22235	-12.08662	-577.56348	744.66528	-1.76359	-492.81888	-741.93298	12.32843	640.66254	827.30377	19.98702	645.86005	24.34751	608.41785	-993.50305	
3553	35.520	-670.18842	-12.37358	-577.49762	744.74304	-1.88348	-492.74954	-741.89020	12.86861	640.44012	827.40948	20.20386	645.70410	24.28169	607.80334	-993.88757	
3554	35.530	-670.04071	-12.79059	-577.55426	744.66443	-2.10100	-493.04404	-741.82379	13.22217	640.33051	827.34540	20.49690	645.58850	24.30210	607.23657	-994.40924	
3555	35.540	-669.87567	-13.16919	-577.54962	744.74493	-2.45010	-493.30212	-741.79694	13.48434	640.26465	827.47504	20.74010	645.54572	24.19699	606.74310	-994.55487	
3556	35.550	-669.79718	-13.42292	-577.63123	744.93439	-2.69725	-493.21808	-741.66583	13.84313	640.21490	827.68048	21.01642	645.53870	24.47878	606.07532	-994.69373	
3557	35.560	-669.72534	-13.63911	-577.68744	745.18793	-3.09306	-493.06613	-741.64276	14.09450	640.11646	827.91895	21.43328	645.49164	24.62460	605.60010	-994.88489	
3558	35.570	-669.66766	-13.91157	-577.77509	745.03827	-3.05200	-493.28207	-741.67938	14.41026	640.04315	827.98022	21.74153	645.38641	24.66436	605.20593	-995.15314	
3559	35.580	-669.62445	-14.30927	-577.83569	745.03741	-3.41791	-493.38211	-741.62640	14.69170	639.97351	827.85400	22.13157	645.20496	24.73940	604.89392	-995.39014	
3560	35.590	-669.62268	-14.69738	-577.97797	745.02417	-3.81551	-493.57074	-741.54968	14.91919	639.79993	827.81622	22.40250	645.02350	24.65824	604.32440	-995.75519	
3561	35.600	-669.68719	-14.99469	-577.98199	745.17230	-4.12833	-493.41788	-741.49176	15.17274	639.73505	827.70294	22.60810	644.93060	24.59966	603.73792	-996.04315	
3562	35.610	-669.69116	-15.24267	-577.95593	745.28448	-4.31159	-493.34912	-741.38916	15.54555	639.69604	827.85010	22.81009	644.89392	24.54659	603.33319	-996.33868	
3563	35.620	-669.71436	-15.42741	-577.98492	745.32611	-4.56187	-493.29227	-741.36615	15.80078	639.63861	827.72119	22.94786	644.77863	24.45116	603.07001	-996.70715	
3564	35.630	-669.63678	-15.73394	-578.00195	745.39203	-4.74496	-493.53183	-741.33984	16.01677	639.56775	827.81665	23.16648	644.76355	24.49266	602.74200	-997.34540	
3565	35.640	-669.65704	-15.86171	-578.10669	745.32269	-5.02205	-493.69214	-741.32172	16.20904	639.55139	827.86359	23.20312	644.61285	24.93954	602.37939	-997.87610	
3566	35.650	-669.61682	-15.90975	-578.31281	745.29156	-5.13220	-493.71970	-741.28540	16.24636	639.50061	827.95929	23.60986	644.70038	25.20067	601.69769	-998.19904	
3567	35.660	-669.31219	-16.01781	-578.49469	745.25488	-5.06268	-493.78571	-741.26868	16.45905	639.50024	827.96466	23.81463	644.66693	24.98838	601.46783	-998.46576	
3568	35.670	-669.33051	-15.98677	-578.56592	745.30121	-5.16455	-493.95621	-741.16278	16.77713	639.47852	828.01190	23.84298	644.60486	24.84393	601.19476	-998.71411	
3569	35.680	-669.23035	-16.16538	-578.59869	745.30322	-5.22920	-493.93915	-741.17639	16.96222	639.38586	828.17261	24.24040	644.68939	24.79383	601.00568	-998.82684	
3570	35.690	-669.20917	-16.32381	-578.59515	745.43671	-5.35269	-493.89682	-741.13489	16.95287	639.34595	828.20251	24.40764	644.62988	24.95069	600.67767	-998.77118	
3571	35.700	-669.20789	-16.43566	-578.64886	745.45215	-5.54461	-493.89789	-741.10376	17.18377	639.28485	828.08752	24.39371	644.60040	24.86198	600.58868	-998.71002	
3572	35.710	-669.18860	-16.54222	-578.64233	745.53131	-5.66410	-493.87186	-741.10522	17.28721	639.20319	827.99530	24.61320	644.44635	24.90966	600.45618	-998.71179	
3573	35.720	-669.18097	-16.69095	-578.60815	745.57043	-5.71560	-493.85443	-741.05524	17.33300	639.19305	827.86627	24.51440	644.34290	24.98317	600.30920	-998.71368	
3574	35.730	-669.14862	-16.68326	-578.64252	745.55249	-5.79375	-493.88150	-741.16083	17.77682	639.10577	828.48077	25.27054	644.97748	25.05203	600.18213	-998.71069	
